<?xml version="1.0" encoding="utf-8"?>
<!-- Generator: Adobe Illustrator 25.3.1, SVG Export Plug-In . SVG Version: 6.00 Build 0)  -->
<svg version="1.1" id="Layer_1" xmlns="http://www.w3.org/2000/svg" xmlns:xlink="http://www.w3.org/1999/xlink" x="0px" y="0px"
	 viewBox="0 0 90 90" style="enable-background:new 0 0 90 90;" xml:space="preserve">
<g transform="translate(0.000000,90.000000) scale(0.100000,-0.100000)">
	<path d="M414,642c-22-18-114-165-114-182c0-6,64-10,160-10c88,0,160,3,160,6c0,18-95,176-113,189C479,665,440,664,414,642z
		 M498,560c12-21,22-41,22-44c0-4-27-6-60-6s-60,2-60,5c0,15,52,85,63,85C469,600,485,582,498,560z"/>
	<path d="M221,321c-22-38-41-72-41-75s124-6,275-6s275,3,275,6s-17,37-37,75l-38,69H459H262L221,321z"/>
	<path d="M108,131c-34-60-35-81-5-109C126,0,131,0,453,0c314,0,328,1,347,20c27,27,25,63-6,116l-26,44H452H135L108,131z"/>
</g>
</svg>
